<?xml version="1.0" standalone="no"?>
<!DOCTYPE svg PUBLIC "-//W3C//DTD SVG 20010904//EN"
 "http://www.w3.org/TR/2001/REC-SVG-20010904/DTD/svg10.dtd">
<svg version="1.0" xmlns="http://www.w3.org/2000/svg"
 width="640.000000pt" height="427.000000pt" viewBox="0 0 640.000000 427.000000"
 preserveAspectRatio="xMidYMid meet">

<g transform="translate(0.000000,427.000000) scale(0.100000,-0.100000)"
fill="#000000" stroke="none">
<path d="M420 4260 c0 -6 7 -22 16 -35 18 -27 16 -127 -2 -145 -14 -14 -114 0
-114 16 0 8 -6 14 -14 14 -8 0 -17 8 -21 17 -6 16 -8 16 -23 -5 -13 -17 -30
-23 -74 -26 -32 -3 -60 -1 -63 5 -4 5 -33 9 -66 9 l-59 0 0 -160 c0 -88 2
-160 5 -160 2 0 19 10 38 23 42 28 93 29 90 1 -1 -10 -4 -50 -7 -89 -4 -67
-12 -116 -21 -142 -6 -17 -25 -16 -25 1 0 7 -7 19 -15 26 -12 10 -17 7 -26
-14 -7 -14 -16 -26 -21 -26 -5 0 -7 4 -3 9 3 5 1 12 -5 16 -7 4 -10 -111 -10
-348 0 -350 0 -355 20 -350 11 3 20 10 20 15 0 5 8 8 17 6 10 -2 30 11 46 29
16 18 46 43 68 55 21 12 39 25 39 30 0 4 25 8 55 8 33 0 55 -4 55 -11 0 -7 17
-9 53 -5 98 10 181 26 187 36 3 5 18 6 32 2 29 -8 108 -75 108 -91 0 -11 20
-51 30 -61 16 -16 41 -88 46 -134 5 -45 3 -61 -16 -94 -24 -43 -43 -54 -130
-72 -30 -7 -70 -18 -88 -26 -18 -8 -55 -14 -83 -14 -56 0 -119 -22 -119 -42 0
-16 -52 -40 -83 -40 -12 1 -36 4 -54 7 l-32 7 26 24 c15 14 43 25 71 29 26 4
59 9 74 11 30 6 58 38 58 66 0 9 8 22 18 27 9 6 12 11 5 11 -6 0 -9 8 -6 19 3
10 0 22 -6 25 -6 4 -11 3 -11 -3 0 -14 -50 8 -70 30 -13 15 -26 16 -93 8 -48
-6 -85 -15 -95 -25 -12 -12 -30 -15 -79 -12 l-64 4 5 -110 c2 -61 4 -118 4
-126 0 -8 -2 -358 -4 -778 -4 -675 -3 -762 11 -762 8 0 34 5 58 12 32 8 62 8
117 0 41 -6 80 -7 89 -3 9 5 68 12 131 16 135 8 155 0 153 -58 -2 -59 -79
-117 -157 -117 -51 0 -86 -19 -86 -46 0 -13 5 -26 10 -29 16 -10 12 -83 -6
-121 -9 -19 -44 -59 -77 -88 -57 -51 -87 -61 -87 -30 0 8 -9 14 -20 14 -10 0
-24 9 -30 20 -8 16 -21 20 -60 20 l-50 0 0 -76 c0 -76 11 -103 42 -105 7 0 1
-5 -15 -11 l-27 -10 0 -164 0 -164 3200 0 3200 0 0 1341 0 1341 -54 50 c-30
27 -57 61 -60 73 -9 37 -68 77 -108 73 l-33 -3 -2 -65 c-2 -36 -5 -80 -8 -97
-3 -18 -6 -36 -6 -40 0 -13 -42 -53 -54 -53 -6 0 -24 -16 -39 -35 -16 -19 -34
-35 -41 -35 -7 0 -23 -9 -37 -20 -60 -46 -229 -70 -258 -35 -7 8 -25 15 -41
15 -31 0 -129 47 -142 68 -6 9 -13 9 -28 1 -11 -6 -27 -8 -35 -5 -8 3 -14 0
-14 -7 -1 -7 -5 -6 -13 4 -7 9 -21 18 -32 20 -15 3 -20 12 -20 39 0 19 -3 37
-7 40 -9 7 19 50 32 50 5 0 12 -11 16 -25 14 -56 43 -9 44 71 0 29 -32 63 -66
70 -26 5 -29 3 -31 -22 0 -15 -8 -31 -17 -36 -9 -5 -16 -22 -16 -38 0 -20 -8
-35 -25 -46 -21 -14 -23 -18 -10 -30 20 -20 30 -100 16 -130 -13 -28 -31 -32
-31 -6 0 23 -52 125 -75 148 -14 15 -18 15 -31 2 -23 -23 -8 -94 27 -128 36
-34 37 -59 2 -92 -36 -33 -79 -43 -107 -25 -36 24 -118 47 -163 47 -47 0 -87
15 -78 29 3 5 -12 16 -34 24 -57 23 -117 101 -145 190 -25 79 -45 116 -87 159
-56 58 -53 216 6 287 22 25 30 28 65 24 36 -5 42 -2 78 35 22 22 46 56 55 75
21 44 63 71 107 70 82 -3 153 28 192 84 24 36 34 43 62 43 19 0 47 7 62 15 16
8 36 15 45 15 20 0 30 22 20 39 -13 20 -70 31 -97 19 -13 -6 -24 -15 -24 -20
0 -5 -12 -13 -26 -18 -30 -12 -116 1 -211 31 -34 10 -69 19 -78 19 -9 0 -29 7
-46 16 -23 11 -29 20 -24 35 9 29 -12 51 -36 38 -15 -7 -19 -6 -19 5 0 8 6 17
13 20 6 3 2 3 -10 0 -17 -4 -23 -1 -23 11 0 12 -6 15 -21 10 -19 -6 -20 -5 -7
17 7 12 13 28 14 33 0 6 4 20 8 33 13 39 0 35 -55 -16 -30 -27 -83 -73 -119
-103 -36 -29 -70 -58 -76 -64 -6 -5 -58 -48 -114 -95 -96 -80 -104 -90 -142
-170 -22 -47 -51 -108 -64 -135 -13 -28 -24 -60 -24 -71 0 -12 -7 -35 -16 -53
-28 -56 -21 -66 211 -317 147 -158 157 -174 158 -237 l1 -52 11 38 c11 40 28
57 58 57 27 0 23 -75 -8 -125 -14 -22 -28 -48 -31 -57 -7 -20 -34 -32 -34 -15
0 8 -4 6 -10 -3 -8 -12 -10 -12 -10 5 0 19 -1 18 -15 -2 -8 -12 -25 -70 -36
-130 -23 -116 -63 -254 -101 -343 -20 -49 -22 -68 -19 -173 3 -131 -6 -160
-54 -170 -44 -8 -59 2 -84 52 -19 40 -24 69 -30 182 -11 215 -3 367 19 394 8
9 8 15 0 20 -15 9 -12 42 9 110 17 58 17 62 1 93 -10 17 -23 39 -30 47 -10 12
-10 15 1 15 11 0 11 2 -1 9 -8 6 -17 8 -21 5 -15 -9 -145 40 -167 62 -13 14
-28 21 -34 18 -6 -4 -8 -3 -4 4 3 6 -6 19 -21 30 -16 11 -41 43 -58 71 -16 28
-33 51 -37 51 -4 0 -8 7 -8 15 0 8 -6 15 -14 15 -31 0 -31 62 -1 83 13 10 15
16 6 21 -13 9 -44 -12 -36 -24 7 -11 -24 -34 -33 -25 -4 4 -1 10 7 13 10 3 7
8 -10 18 -22 12 -22 13 -4 14 16 0 17 2 6 9 -15 10 -43 -8 -34 -21 2 -5 -7 -8
-20 -8 -19 0 -24 5 -22 23 2 12 10 36 19 52 20 37 20 65 2 101 -11 20 -12 33
-5 47 15 27 5 32 -41 18 -26 -7 -40 -18 -40 -28 0 -14 -3 -14 -19 3 -30 33
-33 73 -10 134 11 30 23 66 26 80 3 14 14 32 25 41 15 11 18 22 13 38 -6 21
-8 22 -26 5 -10 -9 -19 -24 -19 -31 0 -16 -39 -52 -56 -53 -6 0 -17 -13 -23
-28 -6 -15 -25 -40 -42 -56 -16 -16 -29 -36 -27 -45 2 -9 -5 -24 -14 -33 -18
-18 -21 -80 -6 -104 5 -7 -3 -11 -22 -12 -16 0 -37 -5 -48 -11 -23 -12 -88 5
-96 25 -3 7 3 37 14 66 10 29 17 56 14 59 -2 4 6 9 17 12 12 3 18 10 15 16 -4
6 11 34 34 63 22 29 47 62 55 73 9 11 21 32 28 47 6 15 15 28 19 28 5 0 8 4 8
9 0 4 -11 6 -25 3 -30 -5 -33 13 -6 28 25 13 54 13 46 0 -8 -14 13 -40 32 -40
7 0 23 16 34 35 23 39 41 47 105 47 28 0 64 9 94 24 26 13 59 24 73 24 14 0
27 7 31 15 8 22 23 18 30 -7 6 -20 9 -17 21 22 8 25 22 51 32 58 16 12 15 13
-9 7 -17 -4 -29 -2 -35 7 -14 23 -63 40 -79 27 -33 -27 -10 6 31 47 29 28 45
52 45 68 0 29 17 43 33 27 9 -9 8 -14 -3 -21 -12 -7 -12 -12 -2 -22 9 -9 12
-9 12 5 0 9 9 21 20 27 26 14 25 28 -2 49 -28 23 -17 38 38 52 48 12 56 24 23
32 -35 9 -16 32 30 35 l42 3 -20 33 c-24 38 -19 49 16 35 38 -14 99 -11 113 6
11 13 10 22 -3 50 -14 29 -22 35 -47 35 -23 0 -30 4 -30 20 0 11 7 20 15 20 8
0 25 10 36 21 18 18 26 20 39 11 15 -9 19 -7 24 11 3 12 6 34 6 50 l0 27
-1076 0 -1075 0 49 -57 c27 -32 81 -104 121 -161 126 -179 228 -290 425 -462
60 -52 128 -120 151 -150 54 -69 98 -115 157 -163 34 -27 58 -59 83 -110 50
-103 52 -124 14 -167 -20 -22 -33 -30 -36 -22 -8 20 -42 14 -67 -11 -18 -18
-32 -23 -56 -19 -47 7 -80 -16 -106 -75 -33 -74 -80 -133 -239 -302 -99 -105
-109 -111 -152 -97 -25 8 -32 -6 -34 -74 -3 -112 13 -217 47 -298 13 -30 32
-109 56 -227 12 -59 -3 -179 -28 -228 -38 -73 -99 -127 -145 -127 -42 0 -54
23 -41 78 5 26 7 51 4 57 -22 34 1 115 32 115 16 0 25 -49 14 -79 -4 -12 -3
-21 2 -21 15 0 32 70 26 103 -4 17 -17 47 -30 67 -12 19 -30 47 -39 61 -9 16
-28 29 -47 33 -25 5 -30 10 -25 25 3 11 2 22 -2 24 -4 3 -8 20 -8 39 1 18 -4
36 -9 40 -5 3 -10 22 -10 42 -1 20 -7 38 -14 41 -7 3 -10 9 -7 15 3 5 0 10 -8
10 -22 0 -47 34 -47 64 0 15 -11 51 -23 79 -13 29 -32 86 -42 127 -9 41 -22
89 -27 105 -12 36 12 160 39 201 9 14 16 41 15 60 -1 24 2 33 10 28 7 -4 8 -3
4 4 -8 13 21 72 42 85 7 5 17 19 22 33 6 14 15 21 23 19 19 -8 43 52 42 104
-1 40 3 49 55 103 31 32 51 57 43 54 -15 -6 -17 6 -3 20 17 17 -16 51 -65 67
-41 14 -46 14 -55 -1 -11 -21 -12 -13 -14 134 -2 116 -10 134 -63 134 -19 0
-47 9 -62 19 -15 11 -39 23 -53 26 -22 6 -54 48 -50 66 1 4 -11 7 -25 7 -15 0
-32 7 -38 16 -7 9 -28 23 -48 31 -33 14 -87 78 -87 104 0 5 -11 16 -25 25 -32
21 -65 86 -65 129 0 18 -5 38 -11 44 -8 8 -8 17 0 32 9 16 9 21 -2 21 -7 0
-28 13 -47 30 -19 16 -38 29 -41 30 -12 0 -65 54 -77 77 l-12 22 -480 1 c-334
0 -480 -3 -480 -10z m486 -465 c16 -8 37 -15 46 -15 37 0 46 -38 37 -149 -5
-57 -11 -106 -14 -109 -7 -7 -16 3 -19 21 -3 21 -26 47 -42 47 -8 0 -14 5 -14
10 0 6 -12 20 -26 33 -15 12 -33 37 -41 56 -13 29 -12 38 4 77 20 48 27 51 69
29z m2783 -109 c9 -10 8 -16 -4 -26 -22 -18 -48 -80 -46 -109 1 -22 -1 -23
-37 -16 -20 4 -47 6 -60 6 -13 -1 -20 4 -17 9 3 6 19 10 36 10 26 0 32 6 54
57 37 83 51 97 74 69z m-2941 -28 c3 -22 -1 -27 -28 -33 -32 -7 -99 -47 -110
-66 -4 -5 -19 -9 -36 -10 -50 -2 -85 -19 -79 -39 3 -11 -1 -20 -10 -23 -8 -4
-12 -13 -9 -22 5 -11 0 -15 -17 -15 l-24 -1 24 -13 c20 -11 21 -14 6 -19 -9
-4 -28 -7 -41 -7 -13 0 -24 -4 -24 -10 0 -5 -7 -10 -15 -10 -20 0 -19 17 3 29
13 8 14 10 2 11 -16 0 -47 40 -31 40 5 0 7 9 4 20 -4 16 0 20 19 20 30 0 100
35 90 45 -4 5 -1 5 6 1 6 -4 19 0 28 8 8 9 23 16 32 16 10 0 22 10 27 22 6 12
21 25 36 29 14 3 43 18 65 32 49 33 78 31 82 -5z m2992 -78 c-16 -31 -23 -19
-9 16 6 16 13 24 16 17 2 -7 -1 -22 -7 -33z m-3025 -299 c-6 -5 -21 -11 -35
-13 -18 -2 -24 -8 -22 -22 3 -14 -1 -17 -13 -12 -9 3 -21 6 -26 6 -5 0 -9 5
-9 10 0 6 7 10 15 10 8 0 15 4 15 9 0 9 22 15 70 20 9 0 10 -2 5 -8z m2400
-251 c3 -5 1 -10 -4 -10 -6 0 -11 5 -11 10 0 6 2 10 4 10 3 0 8 -4 11 -10z
m-104 -61 c-9 -22 -10 -22 -10 -3 -1 11 2 24 6 27 12 12 14 0 4 -24z m123 12
c7 -10 -18 -34 -27 -25 -7 8 3 34 13 34 5 0 11 -4 14 -9z m90 -56 c-5 -21 -9
-24 -15 -13 -11 19 1 62 13 50 5 -5 6 -22 2 -37z m-374 -9 c0 -16 -18 -31 -27
-22 -8 8 5 36 17 36 5 0 10 -6 10 -14z m-1763 -48 c37 -53 45 -75 38 -99 -6
-19 -44 -26 -59 -11 -4 4 -20 8 -34 8 -15 1 -36 2 -48 3 -11 0 -26 12 -33 25
-11 20 -10 28 5 51 18 28 69 65 90 65 6 0 24 -19 41 -42z m1913 -3 c13 -16 3
-20 -24 -9 -9 3 -13 10 -10 15 8 13 20 11 34 -6z m356 6 c-8 -12 -46 -21 -46
-11 0 9 18 18 38 19 7 1 11 -3 8 -8z m-108 -56 c-3 -3 -9 2 -12 12 -6 14 -5
15 5 6 7 -7 10 -15 7 -18z m-218 -11 c7 -17 7 -32 0 -45 -16 -30 -22 -23 -18
21 2 22 -1 42 -7 44 -5 2 -4 5 3 5 7 1 17 -11 22 -25z m35 -14 c3 -5 1 -10 -4
-10 -6 0 -11 5 -11 10 0 6 2 10 4 10 3 0 8 -4 11 -10z m131 -41 c3 -6 2 -15
-2 -19 -12 -12 -38 5 -30 19 9 14 23 14 32 0z m-306 -12 c0 -8 -9 -22 -20 -32
-23 -20 -24 -17 -10 19 10 27 30 35 30 13z m850 -8 c0 -6 -4 -7 -10 -4 -5 3
-10 11 -10 16 0 6 5 7 10 4 6 -3 10 -11 10 -16z m-740 -18 c0 -29 -15 -33 -16
-5 -1 13 2 24 7 24 5 0 9 -9 9 -19z m596 -59 c-18 -16 -19 -16 -12 1 3 10 6
24 6 30 0 8 4 7 12 -1 10 -9 8 -16 -6 -30z m184 -41 c0 -12 -7 -24 -15 -27 -8
-4 -15 -17 -15 -30 0 -13 -4 -24 -10 -24 -5 0 -7 6 -4 14 3 7 -2 21 -11 29 -8
9 -15 20 -14 24 4 24 -2 35 -17 29 -10 -4 -14 -1 -11 6 2 7 -3 18 -12 25 -9 7
-11 12 -4 13 6 0 26 -12 43 -26 29 -25 57 -27 32 -2 -7 7 -12 20 -12 31 0 15
4 13 25 -11 14 -17 25 -40 25 -51z m-466 63 c17 -7 22 -34 6 -34 -5 0 -14 9
-20 20 -12 22 -10 23 14 14z m141 -83 c3 -5 1 -12 -4 -15 -5 -3 -11 1 -15 9
-6 16 9 21 19 6z m-360 -21 c0 -7 -6 -15 -12 -17 -8 -3 -13 4 -13 17 0 13 5
20 13 18 6 -3 12 -11 12 -18z m405 10 c0 -5 -9 -14 -20 -20 -22 -12 -27 -1 -8
18 14 14 28 16 28 2z m-465 -47 c-3 -27 -7 -55 -8 -64 0 -8 -10 -16 -20 -16
-18 -2 -18 -1 -2 17 9 10 16 29 15 42 -4 44 0 68 11 68 7 0 8 -17 4 -47z
m-115 17 c0 -11 -4 -20 -10 -20 -5 0 -10 9 -10 20 0 11 5 20 10 20 6 0 10 -9
10 -20z m626 -18 c-3 -2 -17 -2 -31 2 -21 5 -23 9 -13 20 11 12 16 12 31 -2 9
-8 15 -17 13 -20z m-886 18 c0 -5 -5 -10 -11 -10 -5 0 -7 5 -4 10 3 6 8 10 11
10 2 0 4 -4 4 -10z m1024 -77 c-49 -43 -73 -44 -44 -3 12 17 25 30 30 30 5 0
12 10 16 22 6 21 7 21 21 2 13 -17 11 -22 -23 -51z m-581 39 c-6 -14 -25 -12
-30 4 -2 5 5 10 16 10 11 0 17 -5 14 -14z m149 -28 c-5 -26 -48 -62 -60 -50
-3 4 -1 11 6 15 7 4 12 12 11 17 -4 21 2 34 16 34 8 0 15 8 15 18 0 13 2 14 9
4 4 -7 6 -25 3 -38z m279 32 c5 3 9 0 9 -7 0 -13 -58 -5 -74 11 -6 6 2 6 24 0
18 -5 37 -7 41 -4z m329 -26 c0 -29 -11 -50 -32 -61 -19 -10 -19 -9 -2 22 12
24 14 37 6 50 -6 9 -8 20 -5 23 10 9 33 -15 33 -34z m-2640 0 c0 -11 -4 -20
-10 -20 -5 0 -10 6 -10 14 0 8 -6 17 -12 19 -7 3 -3 6 10 6 16 1 22 -5 22 -19z
m1625 10 c3 -5 -1 -10 -9 -10 -9 0 -16 5 -16 10 0 6 4 10 9 10 6 0 13 -4 16
-10z m1225 -21 c0 -6 -4 -7 -10 -4 -5 3 -10 11 -10 16 0 6 5 7 10 4 6 -3 10
-11 10 -16z m2 -43 c15 -27 12 -77 -4 -87 -21 -14 -28 -11 -28 12 0 11 -4 17
-10 14 -12 -8 -13 5 -1 24 6 9 4 23 -6 38 -8 13 -11 23 -5 23 6 0 13 -6 15
-12 4 -10 6 -10 6 -1 1 6 -3 15 -9 18 -5 3 -10 11 -10 17 0 14 38 -20 52 -46z
m-582 -6 c0 -20 -5 -30 -15 -30 -17 0 -18 4 -9 38 9 32 24 27 24 -8z m257 5
c-4 -8 -11 -15 -17 -15 -6 0 -6 7 2 20 14 22 24 19 15 -5z m-1023 -11 c3 -8 2
-12 -4 -9 -6 3 -10 10 -10 16 0 14 7 11 14 -7z m3522 -12 c11 -7 24 -60 29
-119 2 -23 -4 -38 -21 -54 -22 -21 -27 -22 -75 -11 -28 7 -55 9 -61 6 -12 -8
-67 46 -68 67 0 23 49 65 110 93 60 27 70 29 86 18z m-3140 -50 c-1 -20 -6
-37 -11 -37 -10 0 -15 42 -8 68 8 30 22 8 19 -31z m202 4 c-4 -31 -38 -34 -38
-3 0 29 7 37 27 30 8 -3 13 -15 11 -27z m-543 6 c-3 -3 -11 0 -18 7 -9 10 -8
11 6 5 10 -3 15 -9 12 -12z m1005 3 c0 -9 -9 -15 -21 -15 -18 0 -19 2 -9 15 7
8 16 15 21 15 5 0 9 -7 9 -15z m-354 -65 c5 -42 -13 -80 -39 -80 -6 0 -1 10
11 23 26 28 28 37 5 37 -15 0 -15 1 2 14 17 12 17 14 1 23 -11 6 -14 15 -10
27 10 26 24 6 30 -44z m504 42 c0 -10 -6 -19 -14 -19 -11 0 -14 12 -7 35 4 11
21 -2 21 -16z m-315 -22 c0 -7 -10 -16 -22 -21 -19 -7 -23 -5 -23 10 0 19 16
32 35 27 6 -2 10 -9 10 -16z m193 -50 c4 -24 -14 -50 -35 -50 -11 0 -13 7 -8
30 5 21 2 35 -9 46 -28 27 -17 37 17 15 17 -11 33 -29 35 -41z m-830 16 c4
-32 -15 -86 -30 -86 -6 0 -7 9 -3 23 4 12 7 39 8 60 0 43 20 45 25 3z m363
-12 c-9 -25 -17 -38 -19 -30 -3 13 24 76 32 76 2 0 -4 -21 -13 -46z m578 -35
c-24 -18 -49 -15 -49 6 0 7 7 15 14 18 10 4 13 1 9 -9 -10 -26 17 -15 30 13
10 22 13 24 16 8 2 -10 -7 -26 -20 -36z m112 -5 c-5 -21 -9 -30 -10 -19 -1 24
10 67 15 62 3 -2 0 -22 -5 -43z m-1197 17 c8 -13 -37 -75 -57 -79 -14 -3 -12
4 10 42 28 46 37 53 47 37z m326 -11 c0 -11 -4 -20 -9 -20 -5 0 -7 9 -4 20 3
11 7 20 9 20 2 0 4 -9 4 -20z m510 5 c20 -24 4 -45 -35 -45 -38 0 -48 18 -15
27 11 3 20 12 20 19 0 18 14 18 30 -1z m250 -75 c15 -36 1 -80 -25 -80 -12 0
-15 12 -14 55 2 63 19 73 39 25z m-1512 -28 c2 -23 -1 -42 -6 -42 -6 0 -12 20
-14 45 -2 27 1 44 7 42 5 -2 11 -22 13 -45z m1289 14 c-8 -8 -17 -12 -21 -9
-3 3 2 12 12 19 22 16 29 9 9 -10z m-129 -25 c16 -19 16 -41 -1 -41 -19 0 -43
32 -43 57 0 18 3 20 16 10 8 -6 21 -18 28 -26z m1022 -16 c10 -12 9 -16 -4
-21 -16 -6 -16 -8 -1 -24 15 -17 15 -19 -1 -28 -16 -9 -17 -11 -1 -27 9 -9 20
-27 23 -41 9 -35 -4 -110 -21 -124 -8 -7 -15 -18 -15 -26 0 -7 -9 -18 -19 -24
-53 -28 -86 5 -75 75 3 25 13 46 21 49 12 5 14 16 8 53 -6 41 -3 55 22 100 29
55 42 63 63 38z m-1280 -18 c0 -13 -6 -32 -14 -43 -13 -17 -13 -14 -3 24 13
47 17 52 17 19z m204 -7 c14 -5 30 -18 35 -29 11 -19 8 -20 -38 -16 -59 4 -71
10 -71 36 0 21 31 26 74 9z m224 -4 c25 -15 12 -34 -29 -41 -46 -8 -62 1 -36
19 9 7 17 18 17 23 0 11 29 11 48 -1z m-963 -16 c3 -5 1 -10 -4 -10 -6 0 -11
5 -11 10 0 6 2 10 4 10 3 0 8 -4 11 -10z m-15 -32 c0 -6 -7 -5 -15 2 -8 7 -15
17 -15 22 0 6 7 5 15 -2 8 -7 15 -17 15 -22z m1100 2 c0 -5 -4 -10 -10 -10 -5
0 -10 5 -10 10 0 6 5 10 10 10 6 0 10 -4 10 -10z m-385 -14 c24 6 85 -20 85
-36 0 -5 -8 -13 -17 -19 -31 -17 -104 25 -102 58 0 10 2 12 6 4 3 -8 14 -11
28 -7z m465 -16 c0 -18 -11 -42 -28 -61 -28 -31 -28 -31 -60 -15 -25 13 -32
23 -32 46 0 39 31 41 65 4 16 -18 25 -22 25 -12 0 13 22 68 28 68 1 0 2 -13 2
-30z m-665 10 c-3 -5 -11 -10 -16 -10 -6 0 -7 5 -4 10 3 6 11 10 16 10 6 0 7
-4 4 -10z m435 -24 c0 -2 -7 -7 -16 -10 -8 -3 -12 -2 -9 4 6 10 25 14 25 6z
m-440 -16 c0 -5 -2 -10 -4 -10 -3 0 -8 5 -11 10 -3 6 -1 10 4 10 6 0 11 -4 11
-10z m-740 -47 c-11 -17 -11 -17 -6 0 3 10 6 24 7 30 0 9 2 9 5 0 3 -7 0 -20
-6 -30z m1170 26 c0 -6 -7 -9 -15 -5 -18 6 -20 -5 -4 -21 6 -6 9 -19 7 -29 -3
-16 -7 -13 -27 15 -20 27 -21 35 -10 42 20 12 49 11 49 -2z m-680 -14 c0 -8
-4 -15 -10 -15 -5 0 -7 7 -4 15 4 8 8 15 10 15 2 0 4 -7 4 -15z m260 11 c0 -3
-4 -8 -10 -11 -5 -3 -10 -1 -10 4 0 6 5 11 10 11 6 0 10 -2 10 -4z m-478 -38
c-7 -7 -12 -8 -12 -2 0 14 12 26 19 19 2 -3 -1 -11 -7 -17z m643 12 c13 -6 15
-9 5 -9 -8 0 -22 4 -30 9 -18 12 -2 12 25 0z m178 -29 c2 -11 -1 -22 -7 -24
-8 -3 -13 5 -13 24 0 31 12 31 20 0z m-409 -24 c-10 -26 -22 -20 -16 9 3 15 8
22 14 16 5 -5 6 -16 2 -25z m656 13 c0 -5 15 -10 33 -10 25 0 39 -7 54 -27 35
-48 52 -88 59 -140 10 -80 10 -80 -180 -161 -29 -12 -43 -26 -57 -58 -12 -30
-33 -53 -69 -77 -29 -20 -61 -49 -71 -67 -13 -20 -40 -41 -75 -57 -30 -14 -67
-36 -81 -49 -14 -13 -32 -24 -38 -24 -20 0 -72 -65 -80 -99 -9 -41 -57 -88
-102 -100 -47 -13 -99 7 -113 45 -15 38 -7 54 45 94 25 19 51 40 58 46 7 6 22
16 34 23 13 6 20 17 17 26 -10 25 17 88 64 148 38 49 50 57 78 57 34 0 52 14
34 25 -18 11 -11 71 15 119 14 26 25 51 25 57 0 19 66 69 110 83 25 8 68 18
95 21 93 12 106 16 103 33 -2 10 3 16 10 15 6 -2 12 4 12 12 0 8 6 15 13 15 6
0 -7 9 -30 21 -54 26 -55 39 -3 39 22 0 40 -4 40 -10z m-763 -52 c-2 -13 -4
-5 -4 17 -1 22 1 32 4 23 2 -10 2 -28 0 -40z m257 17 c-6 -16 -24 -21 -24 -7
0 11 11 22 21 22 5 0 6 -7 3 -15z m-1159 -65 c-3 -5 -11 -10 -16 -10 -6 0 -7
5 -4 10 3 6 11 10 16 10 6 0 7 -4 4 -10z m1280 0 c-3 -5 -10 -10 -16 -10 -5 0
-9 5 -9 10 0 6 7 10 16 10 8 0 12 -4 9 -10z m-839 -27 c-10 -10 -19 5 -10 18
6 11 8 11 12 0 2 -7 1 -15 -2 -18z m511 -65 c-3 -8 -6 -5 -6 6 -1 11 2 17 5
13 3 -3 4 -12 1 -19z m-148 -111 c1 -10 -3 -15 -9 -12 -5 3 -10 21 -9 38 0 27
2 29 9 12 5 -11 9 -28 9 -38z m-209 -78 c19 -12 52 -35 73 -51 32 -25 37 -35
37 -69 0 -51 -35 -89 -81 -89 -34 0 -110 31 -90 38 23 8 -10 32 -44 32 -28 0
-32 3 -30 24 2 13 8 32 13 43 14 25 -1 48 -29 48 -12 0 -24 6 -26 13 -3 8 6
12 29 12 18 0 40 5 48 10 24 16 63 11 100 -11z m-190 -18 c15 -29 -1 -31 -29
-4 -24 23 -24 23 -3 23 12 0 26 -9 32 -19z m1567 11 c16 -10 33 -111 23 -138
-7 -16 -15 -21 -29 -17 -12 3 -21 12 -21 19 0 8 -4 14 -9 14 -5 0 -14 15 -21
33 -6 17 -18 44 -26 58 -7 14 -11 29 -7 33 9 8 75 7 90 -2z m-1037 -121 c14
-10 29 -30 35 -45 8 -23 6 -30 -10 -42 -40 -30 -88 -35 -138 -16 l-48 18 27
40 c50 75 78 84 134 45z m-483 -27 c-3 -3 -12 -4 -19 -1 -8 3 -5 6 6 6 11 1
17 -2 13 -5z m45 -26 c-8 -8 -17 -8 -34 0 -22 10 -21 11 12 11 26 1 31 -2 22
-11z m-92 -42 c8 -3 4 -4 -10 0 -14 3 -34 6 -45 5 -15 0 -17 2 -5 9 7 5 21 5
29 1 9 -5 23 -11 31 -15z m90 -21 c31 -18 16 -18 -30 0 -23 9 -28 14 -15 14
11 0 31 -6 45 -14z m-1330 -26 c25 -35 21 -46 -9 -27 -12 7 -21 23 -21 35 0
30 4 29 30 -8z m1731 -70 c-8 -21 -10 -22 -16 -6 -4 10 -2 24 6 33 17 20 23 5
10 -27z m2819 12 c15 -29 13 -39 -16 -58 -26 -17 -27 -16 -55 15 -37 41 -29
62 22 62 28 0 41 -5 49 -19z m-276 -57 c11 -28 7 -42 -14 -47 -13 -3 -20 0
-20 9 0 8 -8 14 -18 14 -32 0 -34 13 -5 26 38 17 50 17 57 -2z m64 -286 c2
-10 -2 -18 -8 -18 -7 0 -8 -6 0 -19 7 -13 7 -22 0 -26 -5 -3 -10 -2 -10 3 0 6
-9 8 -20 5 -25 -7 -34 15 -21 49 11 30 54 34 59 6z"/>
<path d="M385 3480 c-3 -5 -1 -10 4 -10 6 0 11 5 11 10 0 6 -2 10 -4 10 -3 0
-8 -4 -11 -10z"/>
<path d="M4160 4264 c0 -15 22 -44 34 -44 8 0 21 11 30 25 l16 25 -40 0 c-22
0 -40 -3 -40 -6z"/>
<path d="M4952 4212 c-90 -121 -129 -178 -135 -200 -5 -21 -3 -23 16 -19 162
40 169 41 188 29 12 -7 19 -8 19 -2 0 5 6 10 13 10 18 0 33 29 42 77 9 56 0
83 -30 83 -27 0 -35 16 -28 53 5 23 2 27 -18 26 -17 0 -36 -17 -67 -57z"/>
<path d="M5100 4200 c0 -5 5 -10 10 -10 6 0 10 5 10 10 0 6 -4 10 -10 10 -5 0
-10 -4 -10 -10z"/>
<path d="M20 3780 c0 -5 7 -10 15 -10 8 0 15 5 15 10 0 6 -7 10 -15 10 -8 0
-15 -4 -15 -10z"/>
<path d="M53 3670 c0 -25 2 -35 4 -22 2 12 2 32 0 45 -2 12 -4 2 -4 -23z"/>
<path d="M3765 3500 c3 -5 13 -10 21 -10 8 0 12 5 9 10 -3 6 -13 10 -21 10 -8
0 -12 -4 -9 -10z"/>
<path d="M3819 3476 c14 -16 94 -56 113 -56 16 0 -37 36 -81 55 -42 19 -46 19
-32 1z"/>
<path d="M5547 3456 c-7 -19 1 -26 30 -26 25 0 29 10 11 28 -16 16 -35 15 -41
-2z"/>
<path d="M4040 3100 c0 -5 5 -10 10 -10 6 0 10 5 10 10 0 6 -4 10 -10 10 -5 0
-10 -4 -10 -10z"/>
<path d="M4752 2943 c-36 -40 -31 -56 14 -51 26 3 29 7 32 46 2 23 0 42 -5 42
-4 0 -23 -17 -41 -37z"/>
<path d="M5650 2879 c-11 -8 -12 -12 -2 -16 7 -2 19 -11 26 -19 20 -19 57 -19
50 1 -4 8 -15 15 -25 15 -10 0 -19 7 -19 15 0 18 -9 19 -30 4z"/>
<path d="M5480 2840 c0 -5 5 -10 11 -10 5 0 7 5 4 10 -3 6 -8 10 -11 10 -2 0
-4 -4 -4 -10z"/>
<path d="M0 2750 c0 -11 4 -20 9 -20 5 0 7 9 4 20 -3 11 -7 20 -9 20 -2 0 -4
-9 -4 -20z"/>
<path d="M4150 2518 c0 -6 -8 -20 -17 -30 -11 -13 -14 -22 -7 -26 6 -4 13 -13
15 -20 3 -8 15 5 28 28 19 35 21 44 10 51 -19 12 -29 11 -29 -3z"/>
<path d="M4436 2465 c-3 -9 -6 -22 -5 -28 0 -7 5 -1 10 12 5 13 8 26 5 28 -2
2 -6 -3 -10 -12z"/>
</g>
</svg>
